<?xml version="1.0" encoding="UTF-8"?><svg id="Layer_1" xmlns="http://www.w3.org/2000/svg" viewBox="0 0 1036.08 1167.75"><defs><style>.cls-1{fill:#fff;}.cls-2{fill:#ff5f0a;}.cls-3{fill:#ffda00;}.cls-4{fill:#0cf;}.cls-5{fill:#090959;}</style></defs><rect class="cls-5" x="-45.39" y="-35.29" width="1136.49" height="1242.83"/><path class="cls-1" d="m166.82,875.8h-11.1v105.39c0,19.98,16.2,36.18,36.18,36.18h11.1v-105.39c0-19.98-16.2-36.18-36.18-36.18Z"/><path class="cls-1" d="m475.18,888.62h0c-11.49-9.88-26.71-15.76-43.81-15.76-40.6,0-70.25,29.92-70.25,73.72s28.05,73.72,70.25,73.72c16.83,0,31.79-5.61,43.54-15.49,1.23,7.25,7.52,12.56,14.87,12.56h27.06v-141.57h-26.84c-7.44,0-13.75,5.46-14.83,12.82Zm-36.06,88.95c-17.9,0-30.72-12.82-30.72-30.99s12.82-30.99,30.72-30.99,30.72,12.82,30.72,30.99-12.82,30.99-30.72,30.99Z"/><path class="cls-1" d="m590.54,890.22c-.91-8.21-7.85-14.42-16.12-14.42h-28.76v141.57h47.28v-66.25c0-22.17,12.29-33.66,33.66-33.66h.16c9.46.02,17.2-7.49,17.2-16.95v-24.72c-5.61-1.33-10.95-2.14-16.29-2.14-14.96,0-28.31,5.61-37.13,16.56Z"/><path class="cls-1" d="m672.54,875.8h-11.1v105.39c0,19.98,16.2,36.18,36.18,36.18h11.1v-105.39c0-19.98-16.2-36.18-36.18-36.18Z"/><path class="cls-1" d="m853.51,875.8c-7.44,0-13.75,5.46-14.83,12.82h0c-11.49-9.88-26.71-15.76-43.81-15.76-40.6,0-70.25,29.92-70.25,73.72s28.05,73.72,70.25,73.72c16.83,0,31.79-5.61,43.54-15.49,1.23,7.25,7.52,12.56,14.87,12.56h27.06v-141.57h-26.84Zm-50.89,101.77c-17.9,0-30.72-12.82-30.72-30.99s12.82-30.99,30.72-30.99,30.72,12.82,30.72,30.99-12.82,30.99-30.72,30.99Z"/><path class="cls-1" d="m335.93,875.58h0l-50.22,40.6-50.22-40.6h0c-16.42,20.31-13.26,50.07,7.04,66.49l5.58,4.51-5.58,4.51c-20.31,16.42-23.46,46.19-7.04,66.49h0l50.22-40.6,50.22,40.6h0c16.42-20.31,13.26-50.07-7.04-66.49l-5.58-4.51,5.58-4.51c20.31-16.42,23.46-46.19,7.04-66.49Z"/><path class="cls-3" d="m285.59,147.45h0c-75.98,93.98-61.38,231.75,32.59,307.73l25.83,20.88,174.02-140.69-232.44-187.92Z"/><path class="cls-2" d="m717.89,496.94l-25.83-20.88-174.02,140.69,232.44,187.92h0c75.98-93.98,61.38-231.75-32.59-307.73Z"/><path class="cls-4" d="m717.89,455.17c93.98-75.98,108.57-213.75,32.59-307.73h0s-232.44,187.92-232.44,187.92l174.02,140.69,25.83-20.88Z"/><path class="cls-1" d="m318.19,496.94c-93.98,75.98-108.57,213.75-32.59,307.73h0l232.44-187.92-174.02-140.69-25.83,20.88Z"/></svg>