<?xml version="1.0" encoding="utf-8"?>
<!-- Generator: Adobe Illustrator 27.0.0, SVG Export Plug-In . SVG Version: 6.00 Build 0)  -->
<svg version="1.1" xmlns="http://www.w3.org/2000/svg" xmlns:xlink="http://www.w3.org/1999/xlink" x="0px" y="0px"
	 viewBox="0 0 1081 292" style="enable-background:new 0 0 1081 292;" xml:space="preserve">
<style type="text/css">
	.st0{display:none;}
	.st1{display:inline;stroke:#000000;stroke-miterlimit:10;}
	.st2{fill-rule:evenodd;clip-rule:evenodd;fill:#243441;}
	.st3{filter:url(#Adobe_OpacityMaskFilter);}
	.st4{fill-rule:evenodd;clip-rule:evenodd;fill:#FFFFFF;}
	.st5{mask:url(#mask-2_00000062879106417598012230000011707891289865845156_);fill:none;}
	.st6{fill-rule:evenodd;clip-rule:evenodd;fill:#FAFAFA;stroke:#D5D5D5;}
	.st7{fill-rule:evenodd;clip-rule:evenodd;fill:#F9F9F9;stroke:#D5D5D5;}
	.st8{fill-rule:evenodd;clip-rule:evenodd;fill:#FBFBFB;stroke:#D5D5D5;}
	.st9{fill-rule:evenodd;clip-rule:evenodd;fill:#E7E7E7;stroke:#D5D5D5;}
	.st10{fill-rule:evenodd;clip-rule:evenodd;fill:#D8D8D8;stroke:#C2C2C2;}
	.st11{fill-rule:evenodd;clip-rule:evenodd;fill:#CC683A;}
	.st12{fill-rule:evenodd;clip-rule:evenodd;fill:url(#Rectangle_00000046305396176685341290000010761231046573748113_);}
	.st13{fill-rule:evenodd;clip-rule:evenodd;fill:#E7E7E7;stroke:#C2C2C2;}
	.st14{fill-rule:evenodd;clip-rule:evenodd;fill:#A6542F;}
	
		.st15{fill-rule:evenodd;clip-rule:evenodd;fill:url(#Fill-31_00000168106990963477223590000002171627248358162102_);stroke:#D5D5D5;}
	.st16{fill-rule:evenodd;clip-rule:evenodd;fill:url(#Path_00000171678670355093179790000004414796745163008692_);stroke:#DEDEDE;}
	.st17{filter:url(#filter-10);}
	.st18{fill-rule:evenodd;clip-rule:evenodd;fill:url(#Fill-38_00000176741147464998915810000008713292647091939505_);}
	.st19{fill-rule:evenodd;clip-rule:evenodd;fill:url(#Rectangle_00000166638390399131894490000017282255038584917685_);}
	.st20{fill:#243441;}
	.st21{display:none;fill:#FFFFFF;}
</style>
<filter  id="filter-10">
	<feColorMatrix  in="SourceGraphic" type="matrix" values="0 0 0 0 0.847000 0 0 0 0 0.847000 0 0 0 0 0.847000 0 0 0 1.000000 0">
		</feColorMatrix>
</filter>
<g id="Layer_2" class="st0">
	<rect x="-24" y="-24.1" class="st1" width="1182" height="356"/>
</g>
<g id="Layer_1">
	<g id="Group">
		<g id="Group-6">
			<g id="Clip-5">
				<path id="path-1_00000051348488725541930320000005531290404589299885_" class="st2" d="M249.2,1H30.6C13.7,1,0.1,14.7,0.1,31.5
					V254c0,16.9,13.7,30.5,30.5,30.5h218.6c16.9,0,30.5-13.7,30.5-30.5V31.5C279.7,14.7,266,1,249.2,1"/>
			</g>
			<defs>
				<filter id="Adobe_OpacityMaskFilter" filterUnits="userSpaceOnUse" x="0.1" y="1" width="279.6" height="283.5">
					<feColorMatrix  type="matrix" values="1 0 0 0 0  0 1 0 0 0  0 0 1 0 0  0 0 0 1 0"/>
				</filter>
			</defs>
			
				<mask maskUnits="userSpaceOnUse" x="0.1" y="1" width="279.6" height="283.5" id="mask-2_00000062879106417598012230000011707891289865845156_">
				<g class="st3">
					<path id="path-1_00000054945397756750096360000000255015226497370259_" class="st4" d="M249.2,1H30.6C13.7,1,0.1,14.7,0.1,31.5
						V254c0,16.9,13.7,30.5,30.5,30.5h218.6c16.9,0,30.5-13.7,30.5-30.5V31.5C279.7,14.7,266,1,249.2,1"/>
				</g>
			</mask>
			<path id="Fill-4" class="st5" d="M249.2,1H30.6C13.7,1,0.1,14.7,0.1,31.5V254c0,16.9,13.7,30.5,30.5,30.5h218.6
				c16.9,0,30.5-13.7,30.5-30.5V31.5C279.7,14.7,266,1,249.2,1"/>
		</g>
		<g id="Group-9" transform="translate(122.613636, 215.693182)">
			<polygon id="Fill-7" class="st6" points="3.8,18.8 0.6,0.1 17.7,0.1 14.4,18.8 			"/>
		</g>
		<g id="Group-43" transform="translate(65.159091, 215.693182)">
			<polyline id="Fill-41" class="st7" points="14.1,18.8 3.5,18.8 0.3,0.1 17.4,0.1 13.7,19.2 			"/>
		</g>
		<g id="Group-46" transform="translate(229.875000, 215.693182)">
			<polyline id="Fill-44" class="st8" points="14.8,18.8 4.2,18.8 0.9,0.1 18,0.1 14.3,19.2 			"/>
		</g>
		<g id="Group-12" transform="translate(286.329545, 214.431818)">
			<g id="Clip-11">
				<polygon id="path-3_00000174572599465495581190000009299980666776669850_" class="st9" points="3.5,18.8 0.2,0.1 17.3,0.1 
					14.1,18.8 				"/>
			</g>
		</g>
		<g id="Group-15" transform="translate(63.886364, 103.431818)">
			<path id="Fill-13" class="st10" d="M3.1,0.6h80.7c0,0,3,98,0,98c-3,0-83.3,0-83.3,0l0.1-98"/>
		</g>
		<g id="Group-21" transform="translate(98.602273, 65.590909)">
			<path id="Rectangle" class="st11" d="M47,0h136.7c8.3,0,15,6.7,15,15c0,1-0.1,2-0.3,2.9L187,75l0,0H21.3c-3.3,0-6-2.7-6-6
				c0-0.4,0-0.8,0.1-1.2l10-50.1C27.5,7.4,36.5,0,47,0z"/>
			
				<linearGradient id="Rectangle_00000019669867261530204960000006735665016796484259_" gradientUnits="userSpaceOnUse" x1="143.6306" y1="497.1438" x2="143.436" y2="496.9781" gradientTransform="matrix(183.3841 0 0 -75 -26235.9316 37322.418)">
				<stop  offset="0" style="stop-color:#FA814A"/>
				<stop  offset="1" style="stop-color:#D36A3B"/>
			</linearGradient>
			
				<path id="Rectangle_00000115502797319920131250000011705008547303923899_" style="fill-rule:evenodd;clip-rule:evenodd;fill:url(#Rectangle_00000019669867261530204960000006735665016796484259_);" d="
				M33,0h136.7c8.3,0,15,6.7,15,15c0,1-0.1,2-0.3,2.9L173,75l0,0H7.3c-3.3,0-6-2.7-6-6c0-0.4,0-0.8,0.1-1.2l10-50.1
				C13.5,7.4,22.5,0,33,0z"/>
		</g>
		<g id="Group-27" transform="translate(245.272727, 103.431818)">
			<g id="Clip-26">
				<path id="path-6_00000162345685556634678050000000442303921736127115_" class="st13" d="M0.2,0.6v111.9l58.2-0.2
					c7.2,0,13-5.8,13-13V13.6c0-7.2-5.8-13-13-13H0.2L0.2,0.6z"/>
			</g>
		</g>
		<g id="detaliu-dreapta" transform="translate(211.546124, 92.067180)">
			<circle id="Oval" class="st14" cx="13.5" cy="13.9" r="2"/>
			<polygon id="Path-2" class="st14" points="13.5,0 13,10.4 14,10.4 			"/>
			<polygon id="Path-2_00000124142942501149934320000010020757534886961327_" class="st14" points="13.5,27.4 13,17 14,17 			"/>
			<polygon id="Path-2_00000142177779921938090880000014878846361432671146_" class="st14" points="26.7,14.1 16.3,13.7 16.3,14.7 
							"/>
			<polygon id="Path-2_00000080887347818499081440000003933221335587964567_" class="st14" points="0.3,14.1 10.7,13.7 10.7,14.7 
							"/>
		</g>
		<g id="detaliu-stanga" transform="translate(142.546124, 92.067180)">
			<circle id="Oval_00000054986066575235898610000009931477385840023443_" class="st14" cx="13.5" cy="13.9" r="2"/>
			<polygon id="Path-2_00000097474202128784785900000005674316066866600862_" class="st14" points="13.5,0 13,10.4 14,10.4 			"/>
			<polygon id="Path-2_00000119818385543621212810000012955851409212366259_" class="st14" points="13.5,27.4 13,17 14,17 			"/>
			<polygon id="Path-2_00000130637536900337945890000006232413440927197352_" class="st14" points="26.7,14.1 16.3,13.7 16.3,14.7 
							"/>
			<polygon id="Path-2_00000093168221846464769590000017676284113916377989_" class="st14" points="0.3,14.1 10.7,13.7 10.7,14.7 
							"/>
		</g>
		<g id="Group-33" transform="translate(49.363636, 103.431818)">
			
				<linearGradient id="Fill-31_00000169543709867204673720000007274604905558397336_" gradientUnits="userSpaceOnUse" x1="193.5635" y1="460.1947" x2="192.5248" y2="460.7765" gradientTransform="matrix(215.2949 0 0 -112.1862 -41445.8984 51718.8164)">
				<stop  offset="0" style="stop-color:#FFFFFF"/>
				<stop  offset="1" style="stop-color:#F9F9F9"/>
			</linearGradient>
			
				<path id="Fill-31" style="fill-rule:evenodd;clip-rule:evenodd;fill:url(#Fill-31_00000169543709867204673720000007274604905558397336_);stroke:#D5D5D5;" d="
				M180.1,56.1c0,9-7.3,16.4-16.4,16.4H51.7c-9,0-16.4-7.3-16.4-16.4V13.6c0-7.2-5.8-13-13-13c0,0,0,0,0,0l-9.2,0
				c-7.2,0-13,5.8-13,13L0,99.4c0,7.2,5.8,13,13,13c0,0,0,0,0,0h189.3c7.2,0,13-5.8,13-13v-86c0-7.1-5.7-12.9-12.8-13l-9.2-0.2
				c-7.2-0.1-13.1,5.6-13.2,12.8c0,0.1,0,0.1,0,0.2V56.1L180.1,56.1z"/>
			
				<linearGradient id="Path_00000003073319119251519770000013743439240285310863_" gradientUnits="userSpaceOnUse" x1="193.2166" y1="459.1439" x2="191.7062" y2="459.0652" gradientTransform="matrix(148 0 0 -71.3718 -28382.0801 32843.9297)">
				<stop  offset="0" style="stop-color:#E3E3E3"/>
				<stop  offset="1" style="stop-color:#FFFFFF"/>
			</linearGradient>
			
				<polygon id="Path" style="fill-rule:evenodd;clip-rule:evenodd;fill:url(#Path_00000003073319119251519770000013743439240285310863_);stroke:#DEDEDE;" points="
				33.1,41.1 33.1,112.4 181.1,112.3 180.2,41.1 			"/>
		</g>
		<g id="Group-40" class="st17">
			<g transform="translate(79.465909, 138.704545)">
				
					<linearGradient id="Fill-38_00000104698537098821975180000002363515418047530933_" gradientUnits="userSpaceOnUse" x1="161.9141" y1="420.2529" x2="162.9141" y2="420.2529" gradientTransform="matrix(150 0 0 -37 -24286.5801 15568.1592)">
					<stop  offset="0" style="stop-color:#BBDADB"/>
					<stop  offset="1" style="stop-color:#BBDADB"/>
				</linearGradient>
				
					<path id="Fill-38_00000052103448289375311760000001331902469499607448_" style="fill-rule:evenodd;clip-rule:evenodd;fill:url(#Fill-38_00000104698537098821975180000002363515418047530933_);" d="
					M150.5,11.1v11.5c0,8.1-7.3,14.6-16.4,14.6H16.9c-9,0-16.4-6.6-16.4-14.6V11.2c0-6,5.4-10.9,12.2-10.8
					c33.7,0.1,84.8,0,125.7-0.1C145.1,0.3,150.5,5.1,150.5,11.1"/>
			</g>
		</g>
		
			<linearGradient id="Rectangle_00000035523859786508879840000015532358034661012625_" gradientUnits="userSpaceOnUse" x1="242.1514" y1="558.9754" x2="241.5793" y2="558.8998" gradientTransform="matrix(159 0 0 -37 -38324 20838.9238)">
			<stop  offset="0" style="stop-color:#FA814A"/>
			<stop  offset="1" style="stop-color:#D17449"/>
		</linearGradient>
		
			<path id="Rectangle_00000016037171917646533740000007197413574791201923_" style="fill-rule:evenodd;clip-rule:evenodd;fill:url(#Rectangle_00000035523859786508879840000015532358034661012625_);" d="
			M84,139h145l0,0v37H84c-7.7,0-14-6.3-14-14v-9C70,145.3,76.3,139,84,139z"/>
		<path id="Rectangle_00000109015062031767359230000010732226221585099678_" class="st11" d="M228.3,139h0.7l0,0l0.3,37h-1
			c-7.7,0-14-6.3-14-14v-9C214.3,145.3,220.6,139,228.3,139z"/>
	</g>
	<path id="agache" class="st20" d="M402.6,240.4c15.4,0,26.8-5.4,32.5-14.7l0.7,11.4h21.4V94.6c0-29.5-21.4-37.2-44.9-37.2
		c-19.4,0-42.2,9.7-42.2,39.2v23.1h27.1V97c0-15.4,8.4-18.4,16.8-18.4c8.7,0,16.4,3,16.4,18.4v14.4c0,30.5-66.3,19.8-66.3,66v20.1
		C364,230.3,377.4,240.4,402.6,240.4z M411.3,217.6c-11.7,0-20.1-5-20.1-20.4v-19.8c0-12.9,11.8-18.6,24.3-24.5l1.1-0.5
		c0.2-0.1,0.4-0.2,0.5-0.3l1.1-0.5l0,0l1.1-0.5c4.1-2,8.2-4.1,11.8-6.5v51.3C431,212.5,421.3,217.6,411.3,217.6z M523.8,291.3
		c27.5,0,45.6-14.7,45.6-45.6V61.5H548l-2.7,17.1c-4.4-12.7-15.7-21.1-29.8-21.1c-25.1,0-37.2,15.4-37.2,39.9v88.8
		c0,24.1,12.1,40.2,37.2,40.2c11.4,0,22.4-6.4,27.5-16.8V243c0,15.1-4.7,26.5-19.1,26.5c-15.1,0-19.1-11.4-19.1-27.5h-26.5v3.7
		C478.3,274.2,493.3,291.3,523.8,291.3z M523.8,202.8c-11.7,0-19.1-8.4-19.1-24.8v-72.7c0-16.8,7.4-24.8,19.1-24.8
		c10,0,19.1,7,19.1,24.8V178C542.9,195.8,531.5,202.8,523.8,202.8z M624.7,240.4c15.4,0,26.8-5.4,32.5-14.7l0.7,11.4h21.4V94.6
		c0-29.5-21.4-37.2-44.9-37.2c-19.4,0-42.2,9.7-42.2,39.2v23.1h27.1V97c0-15.4,8.4-18.4,16.8-18.4c8.7,0,16.4,3,16.4,18.4v14.4
		c0,30.5-66.3,19.8-66.3,66v20.1C586.1,230.3,599.5,240.4,624.7,240.4z M633.4,217.6c-11.7,0-20.1-5-20.1-20.4v-19.8
		c0-12.9,11.8-18.6,24.3-24.5l1.1-0.5c0.2-0.1,0.4-0.2,0.5-0.3l1.1-0.5l0,0l1.1-0.5c4.1-2,8.2-4.1,11.8-6.5v51.3
		C653.1,212.5,643.4,217.6,633.4,217.6z M745.6,240.4c27.8,0,44.9-15.4,44.9-45.6v-28.5h-26.8v26.1c0,18.4-9.7,24.5-17.8,24.5
		c-8.4,0-18.1-6-18.1-24.5v-87.8c0-17.8,9.7-23.8,17.8-23.8c8.4,0,18.1,6,18.1,23.8v25.8h26.8V103c0-28.8-16.4-45.6-44.9-45.6
		c-25.1,0-44.2,14.7-44.2,45.6v91.8C701.4,226.3,720.5,240.4,745.6,240.4z M841.4,237V105.3c0-17.8,11.7-24.8,22.4-24.8
		c11.4,0,18.1,8,18.1,24.5v132h26.5V97.3c0-24.5-11.4-39.2-33.8-39.2c-13.7,0-26.5,6.4-33.2,16.8V1.2h-26.5V237H841.4z M975.1,240.4
		c25.5,0,43.5-15.4,43.5-46.2v-7l-26.5,0.3v4.4c0,17.8-7.7,24.8-17.8,24.8h-0.3c-10,0-18.4-7-18.4-24.8v-31.2h63v-58.3
		c0-30.5-18.8-44.9-43.5-44.9h-1.7c-25.5,0-44.2,14.4-44.2,44.9v92.1c0,30.8,19.1,45.9,44.2,45.9H975.1z M992.2,140.9h-36.5v-35.5
		c0-17.8,8.4-24.5,18.4-24.5h0.3c8,0,17.8,6.7,17.8,24.5V140.9z"/>
	<path id="PASIUNEPENTRUCONFORT" class="st21" d="M592.6,285v-7.6h5.6c1.8,0,3.1-0.5,4-1.6s1.3-2.3,1.3-3.7c0-1.6-0.5-2.9-1.5-3.8
		s-2.3-1.3-3.9-1.3l0,0h-8.1V285H592.6z M597.4,275.4h-4.8v-6.2h4.8c0.9,0,1.7,0.1,2.2,0.4c1,0.5,1.5,1.4,1.5,2.7c0,1.2-0.3,2-1,2.5
		S598.5,275.4,597.4,275.4L597.4,275.4z M609.7,285l1.9-5.4h7.1l1.8,5.4h2.7l-6.5-17.9H614l-6.8,17.9H609.7z M618,277.7h-5.6
		l2.9-7.9L618,277.7z M635.9,285.5c1.9,0,3.6-0.4,5-1.3c1.4-0.9,2.2-2.3,2.2-4.3c0-1.6-0.6-2.8-1.7-3.6c-0.7-0.5-1.6-0.9-2.8-1.1
		l0,0l-2.5-0.6c-1.7-0.4-2.8-0.7-3.3-1c-0.7-0.4-1.1-1-1.1-1.9c0-0.8,0.3-1.5,0.9-2.1c0.6-0.6,1.7-0.9,3.1-0.9c1.8,0,3,0.5,3.8,1.4
		c0.4,0.5,0.7,1.2,0.8,2.2l0,0h2.3c0-2-0.7-3.4-2-4.4c-1.3-0.9-2.9-1.4-4.8-1.4c-2,0-3.6,0.5-4.7,1.6c-1.1,1-1.7,2.4-1.7,4
		c0,1.5,0.6,2.6,1.7,3.4c0.7,0.4,1.8,0.8,3.4,1.2l0,0l2.4,0.5c1.3,0.3,2.3,0.7,2.9,1.1c0.6,0.4,0.9,1.1,0.9,2.1
		c0,1.3-0.7,2.2-2.2,2.7c-0.7,0.3-1.6,0.4-2.5,0.4c-2,0-3.5-0.6-4.3-1.8c-0.4-0.6-0.7-1.5-0.7-2.5l0,0h-2.3c0,1.9,0.6,3.5,1.9,4.6
		C631.9,285,633.7,285.5,635.9,285.5z M653.2,285v-17.9h-2.5V285H653.2z M668.4,285.5c3,0,5.1-1.1,6.2-3.2c0.6-1.2,0.9-2.9,0.9-5.1
		l0,0v-10.1H673v11.1c0,1.3-0.2,2.3-0.6,3.1c-0.7,1.4-2.1,2.1-4.2,2.1c-1.7,0-2.9-0.7-3.7-2c-0.5-0.9-0.7-1.9-0.7-3.2l0,0v-11.1
		h-2.5v10.1c0,2.2,0.3,3.9,0.9,5.1C663.4,284.4,665.4,285.5,668.4,285.5z M685.6,285v-14.5l9.2,14.5h2.7v-17.9h-2.3v14.5l-9.1-14.5
		h-2.9V285H685.6z M718.9,285v-2.1H708v-6.1h9.9v-2.1H708v-5.4h10.7v-2.2h-13.1V285H718.9z M739.8,285v-7.6h5.6c1.8,0,3.1-0.5,4-1.6
		c0.9-1,1.3-2.3,1.3-3.7c0-1.6-0.5-2.9-1.5-3.8s-2.3-1.3-3.9-1.3l0,0h-8.1V285H739.8z M744.6,275.4h-4.8v-6.2h4.8
		c0.9,0,1.7,0.1,2.2,0.4c1,0.5,1.5,1.4,1.5,2.7c0,1.2-0.3,2-1,2.5C746.6,275.1,745.7,275.4,744.6,275.4L744.6,275.4z M771.3,285
		v-2.1h-10.9v-6.1h9.9v-2.1h-9.9v-5.4h10.7v-2.2h-13.1V285H771.3z M780.9,285v-14.5l9.2,14.5h2.7v-17.9h-2.3v14.5l-9.1-14.5h-2.9
		V285H780.9z M807.7,285v-15.8h6v-2.1h-14.6v2.1h6V285H807.7z M822.7,285v-7.7h5.5c1,0,1.7,0.1,2.2,0.3c0.8,0.4,1.2,1.2,1.3,2.4l0,0
		l0.1,3c0,0.7,0.1,1.2,0.1,1.4s0.1,0.4,0.2,0.6l0,0h3v-0.4c-0.4-0.2-0.6-0.5-0.8-1.1c-0.1-0.3-0.1-0.8-0.2-1.5l0,0l-0.1-2.4
		c0-1-0.2-1.8-0.6-2.3s-0.9-0.8-1.6-1.1c0.8-0.4,1.4-1,1.9-1.6c0.4-0.7,0.7-1.6,0.7-2.6c0-2.1-0.8-3.5-2.5-4.2
		c-0.9-0.4-2-0.6-3.4-0.6l0,0h-8.3V285H822.7z M828.3,275.3h-5.6v-6.1h5.9c0.8,0,1.5,0.1,2,0.4c0.9,0.5,1.4,1.3,1.4,2.6
		c0,1.2-0.3,2-1,2.5C830.3,275.1,829.4,275.3,828.3,275.3L828.3,275.3z M849.3,285.5c3,0,5.1-1.1,6.2-3.2c0.6-1.2,0.9-2.9,0.9-5.1
		l0,0v-10.1h-2.5v11.1c0,1.3-0.2,2.3-0.6,3.1c-0.7,1.4-2.1,2.1-4.2,2.1c-1.7,0-2.9-0.7-3.7-2c-0.5-0.9-0.7-1.9-0.7-3.2l0,0v-11.1
		h-2.5v10.1c0,2.2,0.3,3.9,0.9,5.1C844.2,284.4,846.3,285.5,849.3,285.5z M882.4,285.5c2.4,0,4.3-0.8,5.8-2.3
		c1.2-1.3,1.9-2.9,2.1-4.7l0,0h-2.4c-0.2,1.2-0.6,2.1-1.1,2.9c-0.9,1.4-2.3,2.1-4.1,2.1c-1.9,0-3.4-0.7-4.4-2c-1-1.3-1.5-3-1.5-5.1
		c0-2.6,0.5-4.5,1.6-5.7s2.5-1.9,4.3-1.9c1.4,0,2.6,0.3,3.4,1c0.8,0.7,1.3,1.6,1.6,2.7l0,0h2.4c-0.1-1.5-0.8-2.9-2.1-4.1
		c-1.3-1.2-3-1.8-5.3-1.8c-2.7,0-4.7,0.9-6.3,2.8c-1.4,1.7-2.1,3.9-2.1,6.5c0,3.5,0.9,6.1,2.8,7.7
		C878.6,284.8,880.3,285.5,882.4,285.5z M904.9,285.5c3,0,5.2-1,6.8-3.1c1.4-1.8,2-4,2-6.7c0-2.5-0.6-4.5-1.8-6.1
		c-1.5-2-3.9-3.1-7-3.1c-3,0-5.3,1.1-6.9,3.3c-1.2,1.7-1.8,3.8-1.8,6.2c0,2.7,0.7,4.9,2.1,6.7C900,284.6,902.2,285.5,904.9,285.5z
		 M905.2,283.4c-2.3,0-3.9-0.7-4.9-2s-1.5-3-1.5-5c0-2.5,0.6-4.4,1.8-5.6s2.7-1.9,4.5-1.9c1.9,0,3.4,0.6,4.5,1.9s1.7,3,1.7,5.1
		c0,2-0.5,3.8-1.4,5.3S907.4,283.4,905.2,283.4z M923.1,285v-14.5l9.2,14.5h2.7v-17.9h-2.3v14.5l-9.1-14.5h-2.9V285H923.1z
		 M945.5,285v-8.2h8.8v-2.1h-8.8v-5.4h10v-2.2h-12.4V285H945.5z M969.8,285.5c3,0,5.2-1,6.8-3.1c1.4-1.8,2-4,2-6.7
		c0-2.5-0.6-4.5-1.8-6.1c-1.5-2-3.9-3.1-7-3.1c-3,0-5.3,1.1-6.9,3.3c-1.2,1.7-1.8,3.8-1.8,6.2c0,2.7,0.7,4.9,2.1,6.7
		C964.9,284.6,967.1,285.5,969.8,285.5z M970.1,283.4c-2.3,0-3.9-0.7-4.9-2c-1-1.4-1.5-3-1.5-5c0-2.5,0.6-4.4,1.8-5.6
		s2.7-1.9,4.5-1.9c1.9,0,3.4,0.6,4.5,1.9c1.1,1.3,1.7,3,1.7,5.1c0,2-0.5,3.8-1.4,5.3C973.8,282.6,972.3,283.4,970.1,283.4z
		 M988.4,285v-7.7h5.5c1,0,1.7,0.1,2.2,0.3c0.8,0.4,1.2,1.2,1.3,2.4l0,0l0.1,3c0,0.7,0.1,1.2,0.1,1.4s0.1,0.4,0.2,0.6l0,0h3v-0.4
		c-0.4-0.2-0.6-0.5-0.8-1.1c-0.1-0.3-0.1-0.8-0.2-1.5l0,0l-0.1-2.4c0-1-0.2-1.8-0.6-2.3s-0.9-0.8-1.6-1.1c0.8-0.4,1.4-1,1.9-1.6
		s0.7-1.6,0.7-2.6c0-2.1-0.8-3.5-2.5-4.2c-0.9-0.4-2-0.6-3.4-0.6l0,0h-8.3V285H988.4z M994,275.3h-5.6v-6.1h5.9c0.8,0,1.5,0.1,2,0.4
		c0.9,0.5,1.4,1.3,1.4,2.6c0,1.2-0.3,2-1,2.5S995.1,275.3,994,275.3L994,275.3z M1014.3,285v-15.8h6v-2.1h-14.6v2.1h6V285H1014.3z"
		/>
	<path id="_xAE_" class="st21" d="M1050.6,90c5.6,0,10.3-2,14.2-5.9s5.9-8.7,5.9-14.2c0-5.5-2-10.3-5.9-14.2s-8.7-5.9-14.2-5.9
		c-5.5,0-10.2,2-14.1,5.9c-3.9,3.9-5.9,8.6-5.9,14.2c0,5.6,1.9,10.3,5.8,14.2C1040.3,88,1045,90,1050.6,90z M1050.6,87.2
		c-4.8,0-8.9-1.7-12.2-5.1c-3.3-3.4-5-7.5-5-12.3c0-4.8,1.7-8.9,5-12.2c3.4-3.4,7.4-5.1,12.2-5.1c4.8,0,8.9,1.7,12.2,5.1
		c3.4,3.4,5,7.4,5,12.2c0,4.8-1.7,8.9-5,12.3S1055.4,87.2,1050.6,87.2z M1046.4,80.8v-8.7h3.1c2.1,0,3.5,0.2,4.3,0.7
		c1.4,0.8,2.1,2.5,2.1,5.1l0,0v1.8l0.1,0.7c0,0.1,0,0.2,0.1,0.2s0,0.1,0.1,0.2l0,0h3.6l-0.1-0.3c-0.1-0.2-0.2-0.6-0.2-1.1
		s-0.1-1.1-0.1-1.6l0,0v-1.6c0-1.1-0.4-2.3-1.2-3.4s-2.1-1.9-3.8-2.2c1.4-0.2,2.4-0.6,3.2-1.1c1.4-0.9,2.2-2.4,2.2-4.3
		c0-2.8-1.1-4.6-3.4-5.6c-1.3-0.5-3.3-0.8-6-0.8l0,0h-7.7v22H1046.4z M1049.9,69.4h-3.5v-8h3.3c2.2,0,3.7,0.3,4.7,0.8
		s1.5,1.6,1.5,3.2c0,1.7-0.8,2.8-2.3,3.4C1052.8,69.2,1051.5,69.4,1049.9,69.4L1049.9,69.4z"/>
</g>
</svg>
