<?xml version="1.0" encoding="UTF-8"?>
<!DOCTYPE svg PUBLIC "-//W3C//DTD SVG 1.1//EN" "http://www.w3.org/Graphics/SVG/1.1/DTD/svg11.dtd">
<!-- Creator: CorelDRAW -->
<svg xmlns="http://www.w3.org/2000/svg" xml:space="preserve" width="2835px" height="469px" version="1.1" style="shape-rendering:geometricPrecision; text-rendering:geometricPrecision; image-rendering:optimizeQuality; fill-rule:evenodd; clip-rule:evenodd"
viewBox="0 0 2834.88 469.09"
 xmlns:xlink="http://www.w3.org/1999/xlink"
 xmlns:xodm="http://www.corel.com/coreldraw/odm/2003">
 <defs>
  <style type="text/css">
   <![CDATA[
    .fil3 {fill:#FEFEFE}
    .fil0 {fill:black}
    .fil1 {fill:#D10A00}
    .fil2 {fill:black;fill-rule:nonzero}
   ]]>
  </style>
 </defs>
 <g id="Layer_x0020_1">
  <metadata id="CorelCorpID_0Corel-Layer"/>
  <g id="_2171299520">
   <path class="fil0" d="M1533.17 176.72c0.09,0.3 0.2,0.69 0.3,1.16 0.15,0.48 0.3,1.03 0.45,1.65l1.09 135.17c0.09,0.32 0.21,0.79 0.39,1.43 0.75,2.81 3.01,4.28 6.81,4.28l90.25 0c5.04,0 7.54,-1.93 7.48,-5.71l-0.39 -219.29c0.14,-0.63 0.18,-1.11 0.11,-1.41 -0.86,-3.16 -3.32,-4.73 -7.42,-4.73l-116.25 0c-5.05,0 -8.11,2.06 -9.23,6.14l-47.3 166.38c-0.54,1.57 -1.25,2.36 -2.21,2.36 -0.94,0 -1.63,-0.79 -2.05,-2.36l-75.7 -166.85c-1.65,-3.8 -4.84,-5.67 -9.53,-5.67l-116.74 0c-2.86,0 -4.05,0.81 -3.64,2.37 0.25,0.93 3.82,3.93 10.66,8.97 6.87,5.05 10.81,9.47 11.8,13.23 0.26,0.95 0.3,1.73 0.16,2.37l0.02 198.49c0.11,0.32 0.22,0.79 0.39,1.43 0.75,2.81 3.17,4.28 7.27,4.28l37.82 0c4.72,0 7.23,-1.93 7.47,-5.71l-1.36 -107.75c0.15,-0.64 0.41,-1.42 0.8,-2.37 0.72,0.32 1.25,1.12 1.6,2.37l48.58 107.75c1.63,3.78 4.97,5.71 10.03,5.71l99.71 0c5.04,0 8.16,-1.93 9.36,-5.71l38 -135.63c0.47,-0.64 0.9,-1.42 1.27,-2.35z"/>
   <path class="fil0" d="M1831.07 299.59l-37.31 0c-4.1,0 -6.58,-1.57 -7.42,-4.71 0,-0.32 -0.08,-0.78 -0.26,-1.43l-0.03 -177.22c-0.05,-3.8 2.43,-5.69 7.46,-5.69l37.72 0c3.78,0 6.05,1.43 6.79,4.25 0.18,0.64 0.3,1.12 0.4,1.42l0.01 177.24c0.15,4.1 -2.31,6.14 -7.36,6.14zm97.29 8.52c10.09,-8.2 15.17,-18.11 15.2,-29.78l0.02 -147c-0.12,-2.84 -0.57,-5.67 -1.32,-8.51 -2.6,-9.75 -8.77,-17.79 -18.49,-24.11 -9.72,-6.28 -20.71,-9.44 -32.99,-9.44l-157.38 0c-14.81,0 -27.27,4.18 -37.3,12.54 -10.07,8.34 -15.18,18.18 -15.3,29.52l0.46 147c-0.11,3.14 0.22,6.14 0.98,8.99 2.61,9.73 8.76,17.72 18.42,23.85 9.67,6.13 20.65,9.24 32.94,9.24l157.39 0c14.8,0 27.25,-4.1 37.37,-12.3z"/>
   <path class="fil0" d="M2142.57 299.59l-37.64 0c-4.07,0 -6.54,-1.57 -7.35,-4.68 -0.09,-0.32 -0.15,-24.7 -0.17,-73.23 -0.17,-4.17 2.25,-6.24 7.27,-6.24l37.64 0c3.76,0 6.06,1.61 6.9,4.74 0.09,0.32 0.3,24.75 0.66,73.27 -0.16,4.1 -2.6,6.14 -7.31,6.14zm-45.39 -183.32c-0.09,-3.84 2.39,-5.73 7.42,-5.73l37.61 0c4.09,0 6.51,1.43 7.26,4.25 0.18,0.64 0.23,25.2 0.18,73.69 -0.16,4.14 -2.59,6.17 -7.3,6.17l-37.64 0c-4.07,0 -6.53,-1.57 -7.36,-4.67 -0.1,-0.32 -0.15,-24.88 -0.17,-73.71zm156.15 111.47c-1.67,-6.31 -8.73,-13.87 -21.16,-22.68 15.08,-10.71 22.51,-21.28 22.27,-31.66l0.12 -42.07c-0.14,-2.84 -0.57,-5.67 -1.33,-8.51 -2.6,-9.75 -8.76,-17.79 -18.49,-24.11 -9.69,-6.28 -20.72,-9.44 -32.98,-9.44l-228.76 0c-2.82,0 -4.04,0.81 -3.63,2.37 0.28,0.93 3.74,3.93 10.43,8.97 6.71,5.05 10.55,9.47 11.56,13.23 0.27,0.95 0.46,1.73 0.64,2.37l0.04 198.49c0.07,0.32 0.19,0.79 0.37,1.43 0.75,2.81 3.17,4.28 7.28,4.28l202.28 0c14.8,0 27.34,-4.1 37.59,-12.3 10.26,-8.2 15.26,-18.11 14.98,-29.78l0.13 -42.07c-0.14,-2.85 -0.57,-5.69 -1.34,-8.52z"/>
   <path class="fil0" d="M2319.94 120.84c-5.77,5.53 -13.35,8.62 -21.16,8.62 -7.39,0 -14.98,-3.08 -20.55,-8.83 -5.53,-5.54 -8.6,-12.94 -8.6,-20.54 0,-7.8 3.07,-15.4 8.82,-21.15 5.35,-5.54 12.73,-8.41 20.55,-8.41 8.01,-0.01 15.41,3.08 21.14,8.82 5.34,5.34 8.42,12.74 8.42,20.95 0,7.8 -3.29,15.2 -8.62,20.54zm-20.51 -54.83l-0.88 0c-9.06,0.11 -17.13,3.58 -23.18,9.65 -6.58,6.56 -10.27,15.61 -10.27,24.43 0,8.83 3.49,17.26 9.87,23.62 6.56,6.57 14.98,10.27 24.03,10.27 8.82,0 17.45,-3.7 24.02,-10.07 6.59,-6.15 10.07,-14.58 10.07,-23.82 0,-9.03 -3.7,-17.66 -9.86,-23.82 -6.28,-6.47 -14.72,-10.15 -23.8,-10.26z"/>
   <path class="fil0" d="M2298.78 97.63l-6.16 0 0 -12.74 5.96 0c6.77,0 9.86,1.85 9.86,6.58 0,4.52 -3.09,6.16 -9.66,6.16zm17.05 -6.98c0,-6.98 -5.14,-10.48 -16.02,-10.48l-14.38 0 0 38.4 7.19 0 0 -16.42 7.19 0 7.82 16.42 8.2 0 -8.63 -17.45c5.55,-1.03 8.63,-4.93 8.63,-10.47z"/>
   <path class="fil1" d="M162.92 131.3l-133.94 0 0 23.22 133.95 0c0,-7.13 -0.01,-14.88 -0.01,-23.22z"/>
   <path class="fil1" d="M29.01 377.01c0.11,0.41 0.26,1 0.49,1.82 0.96,3.59 4.05,5.46 9.28,5.46l1204.02 0 -0.19 -26.52 -1069.75 -0.06c-5.24,0 -8.38,-2 -9.45,-6 -0.1,-0.41 -0.18,-31.59 -0.2,-93.52 -0.19,-5.24 2.91,-7.88 9.35,-7.88l115.23 0c6.42,0 11.78,-1.78 16.04,-5.39l19.78 -16.3c2.09,-1.2 3.02,-2.2 2.82,-3.02 -0.32,-1.19 -2.1,-1.82 -5.32,-1.82l-148.39 0c-5.23,0 -8.37,-2 -9.45,-6.01 -0.07,-0.3 -0.14,-4.58 -0.19,-12.82l-134.09 0 0.02 172.06z"/>
   <path class="fil1" d="M162.96 170.96l-133.98 0 0 17.25 134.02 0c-0.01,-5.09 -0.03,-10.84 -0.04,-17.25z"/>
   <path class="fil1" d="M26.17 116.3l296.7 0c8.4,-0.94 10.89,-7.92 7.4,-20.99 -1.07,-4.03 -4.23,-6.04 -9.45,-6.04l-316.09 0c-3.16,0 -4.74,0.79 -4.73,2.33 0,0.22 0.03,0.45 0.1,0.7 0.33,1.18 4.75,5.01 13.31,11.45 8.56,6.43 12.76,12.55 12.76,12.55z"/>
   <polygon class="fil1" points="555.29,122.2 539.79,140.4 605.47,140.4 623.43,122.2 "/>
   <path class="fil1" d="M391.49 122.2c4.06,5.31 8.7,11.38 13.92,18.2l116.47 0 -12.61 -18.2 -117.78 0z"/>
   <path class="fil1" d="M490.71 95.41c-2.5,-3.46 -6.27,-5.19 -11.3,-5.19l-104.91 0c-3.48,0 -4.87,1.25 -4.2,3.78 0.09,0.34 4.17,5.82 12.24,16.45l118.59 0 -10.42 -15.04z"/>
   <path class="fil1" d="M415.29 153.27c3.7,4.79 7.19,9.29 10.46,13.52l153.66 0 13.34 -13.52 -177.46 0z"/>
   <path class="fil1" d="M462.6 214.97c0.48,0.65 0.84,1.43 1.1,2.38 0.75,2.83 0.13,5.18 -1.89,7.09l-89.91 91.69c-1.01,0.96 -1.39,1.89 -1.13,2.82 0.34,1.28 1.75,1.92 4.28,1.92l57.19 0c5.03,0 8.87,-1.57 11.5,-4.74l44.26 -51.98c0.92,-1.26 2.17,-1.9 3.75,-1.9 1.57,0 3.05,0.79 4.41,2.36l35.36 51.06c2.5,3.46 6.27,5.2 11.3,5.2l104.45 0c3.78,0 5.34,-1.28 4.66,-3.78 -0.16,-0.64 -14.75,-19.86 -43.73,-57.69 -31.25,-40.32 -47.43,-61.43 -48.56,-63.32 -0.81,-0.64 -1.32,-1.43 -1.58,-2.37 -0.75,-2.84 0,-5.33 2.23,-7.56l6.18 -6.25 -130.59 0c16.97,21.99 25.88,33.69 26.72,35.07z"/>
   <path class="fil1" d="M650.34 94.94c0.99,-0.94 1.38,-1.91 1.12,-2.83 -0.33,-1.27 -1.76,-1.89 -4.28,-1.89l-57.65 0c-4.73,0 -8.42,1.57 -11.03,4.72l-13.21 15.51 69.74 0 15.31 -15.51z"/>
   <path class="fil1" d="M845.79 230.57c0.06,3.8 -2.41,5.69 -7.42,5.69l-37.65 0c-4.08,0 -6.49,-1.39 -7.24,-4.21 0.09,-0.64 0.08,-1.12 0,-1.42l-0.11 -50.73 -105.21 0 0.01 134.8c0.09,0.32 0.21,0.79 0.38,1.43 0.76,2.81 3.18,4.28 7.29,4.28l90.36 0c4.73,0 7.22,-1.89 7.48,-5.67l-0.52 -51.52c0.25,-3.82 2.72,-5.71 7.45,-5.71l97.78 0c14.5,0 26.86,-4.06 37.11,-12.26 10.26,-8.2 15.39,-18.15 15.45,-29.81l-0.11 -35.54 -105.16 0 0.11 50.67z"/>
   <path class="fil1" d="M949.38 122.82c-0.06,-0.21 -0.12,-0.41 -0.18,-0.62l-103.65 0 0.04 18.2 105.14 0 -0.03 -9.07c-0.13,-2.84 -0.57,-5.67 -1.32,-8.51z"/>
   <path class="fil1" d="M930.89 98.71c-9.71,-6.28 -20.71,-9.44 -33,-9.44l-228.74 0c-2.84,0 -4.05,0.81 -3.62,2.37 0.25,0.93 3.8,3.93 10.65,8.97 4.9,3.6 8.29,6.89 10.21,9.84l257.12 0c-3.18,-4.41 -7.37,-8.33 -12.62,-11.74z"/>
   <polygon class="fil1" points="688.16,153.27 688.16,166.79 793.34,166.79 793.31,153.27 "/>
   <polygon class="fil1" points="845.62,153.27 845.65,166.79 950.8,166.79 950.76,153.27 "/>
   <polygon class="fil1" points="688.15,122.2 688.16,140.4 793.28,140.4 793.24,122.2 "/>
   <path class="fil1" d="M1138.08 293.45c0.17,4.1 -2.3,6.14 -7.34,6.14l-37.31 0c-4.1,0 -6.58,-1.57 -7.42,-4.71 0,-0.32 -0.09,-0.78 -0.27,-1.43l0 -177.22c-0.07,-3.8 2.39,-5.69 7.42,-5.69l37.74 0c3.76,0 6.04,1.43 6.79,4.25 0.18,0.64 0.3,1.12 0.39,1.42l0 177.24zm85.36 -194.74c-9.71,-6.28 -20.72,-9.44 -33.02,-9.44l-157.37 0c-14.8,0 -27.25,4.18 -37.29,12.54 -3.28,2.72 -6.03,5.6 -8.25,8.64l64.24 0 0 11.75 -70 0c-0.8,2.93 -1.24,5.97 -1.27,9.13l0.03 9.07 58.1 0 0 12.87 -58.06 0 0.04 13.52 44.87 0 0 13.11 -44.83 0 0.3 98.43c-0.1,3.14 0.22,6.14 0.98,8.99 2.61,9.73 8.76,17.72 18.42,23.85 9.67,6.13 20.65,9.24 32.95,9.24l157.38 0c14.81,0 27.26,-4.1 37.35,-12.3 10.12,-8.2 15.18,-18.11 15.22,-29.78l0.02 -147c-0.12,-2.84 -0.57,-5.67 -1.32,-8.51 -2.62,-9.75 -8.78,-17.79 -18.49,-24.11z"/>
   <path class="fil2" d="M1315.31 395.49l10.66 0 -2.6 -48.51 -14.39 0 -5.11 16.12c-1.66,5.4 -3.31,11.81 -4.61,17.42l-0.29 0c-1.08,-5.69 -2.52,-11.73 -4.1,-17.35l-4.75 -16.19 -14.61 0 -3.1 48.51 10.15 0 0.94 -18.43c0.28,-6.04 0.57,-13.53 0.79,-20.08l0.14 0c1.23,6.34 2.81,13.25 4.39,19.01l5.19 18.71 8.56 0 5.9 -18.93c1.88,-5.69 3.89,-12.6 5.47,-18.79l0.15 0c0,7.06 0.21,14.11 0.43,19.94l0.79 18.57zm48.23 -20.8c0,-8.35 -3.67,-15.26 -15.41,-15.26 -6.4,0 -11.22,1.8 -13.67,3.17l2.01 7.05c2.31,-1.44 6.12,-2.66 9.72,-2.66 5.4,0 6.41,2.66 6.41,4.6l0 0.44c-12.46,0 -20.66,4.32 -20.66,13.46 0,5.61 4.25,10.79 11.37,10.79 4.18,0 7.78,-1.51 10.08,-4.31l0.21 0 0.65 3.52 9.86 0c-0.43,-1.94 -0.57,-5.18 -0.57,-8.49l0 -12.31zm-10.58 7.99c0,0.65 -0.08,1.29 -0.22,1.87 -0.72,2.23 -3.02,4.03 -5.69,4.03 -2.44,0 -4.31,-1.36 -4.31,-4.17 0,-4.18 4.46,-5.54 10.22,-5.54l0 3.81zm52.61 -11.88c0,-5.25 0.15,-8.2 0.29,-10.51l-9.5 0 -0.36 4.25 -0.14 0c-1.8,-2.95 -4.83,-5.04 -9.65,-5.04 -8.71,0 -15.98,7.2 -15.98,18.57 0,10.08 6.19,17.13 14.9,17.13 4.03,0 7.41,-1.65 9.5,-4.53l0.15 0 0 2.23c0,6.55 -3.96,9.29 -9.14,9.29 -4.18,0 -7.99,-1.37 -10.23,-2.67l-2.16 8.35c3.17,1.73 7.99,2.67 12.67,2.67 5.18,0 10.44,-1.01 14.25,-4.32 4.04,-3.53 5.4,-9.07 5.4,-15.84l0 -19.58zm-10.94 9c0,0.94 -0.07,2.09 -0.36,2.95 -0.72,2.52 -2.95,4.39 -5.83,4.39 -4.53,0 -7.12,-4.1 -7.12,-9.35 0,-6.41 3.16,-10.01 7.19,-10.01 3.03,0 5.12,1.94 5.91,4.82 0.14,0.65 0.21,1.37 0.21,2.02l0 5.18zm49.02 -5.11c0,-8.35 -3.67,-15.26 -15.4,-15.26 -6.41,0 -11.23,1.8 -13.68,3.17l2.02 7.05c2.3,-1.44 6.11,-2.66 9.71,-2.66 5.4,0 6.41,2.66 6.41,4.6l0 0.44c-12.45,0 -20.66,4.32 -20.66,13.46 0,5.61 4.25,10.79 11.37,10.79 4.18,0 7.78,-1.51 10.08,-4.31l0.22 0 0.64 3.52 9.87 0c-0.44,-1.94 -0.58,-5.18 -0.58,-8.49l0 -12.31zm-10.58 7.99c0,0.65 -0.07,1.29 -0.22,1.87 -0.72,2.23 -3.02,4.03 -5.68,4.03 -2.45,0 -4.32,-1.36 -4.32,-4.17 0,-4.18 4.46,-5.54 10.22,-5.54l0 3.81zm16.48 12.81l30.59 0 0 -8.71 -16.91 0 0 -0.14c2.01,-1.94 3.81,-4.18 5.76,-6.41l10.58 -13.31 0 -6.63 -28.79 0 0 8.71 15.4 0 0 0.15c-1.94,2.08 -3.53,3.88 -5.54,6.19l-11.09 13.89 0 6.26zm47.51 0l0 -35.2 -10.94 0 0 35.2 10.94 0zm-5.4 -50.46c-3.53,0 -5.83,2.38 -5.83,5.48 0,3.02 2.23,5.47 5.69,5.47 3.67,0 5.9,-2.45 5.9,-5.47 -0.07,-3.1 -2.23,-5.48 -5.76,-5.48zm14.18 50.46l10.94 0 0 -20.3c0,-1 0.07,-2.01 0.36,-2.73 0.79,-2.02 2.59,-4.1 5.61,-4.1 3.96,0 5.55,3.09 5.55,7.63l0 19.5 10.94 0 0 -20.8c0,-10.37 -5.4,-15.19 -12.6,-15.19 -5.9,0 -9.43,3.38 -10.87,5.69l-0.21 0 -0.51 -4.9 -9.5 0c0.15,3.17 0.29,6.84 0.29,11.23l0 23.97zm73.27 -14.11c0.15,-0.79 0.36,-2.44 0.36,-4.32 0,-8.7 -4.31,-17.56 -15.69,-17.56 -12.23,0 -17.78,9.86 -17.78,18.79 0,11.01 6.84,17.92 18.79,17.92 4.75,0 9.14,-0.72 12.74,-2.23l-1.44 -7.41c-2.95,1 -5.97,1.51 -9.72,1.51 -5.11,0 -9.64,-2.16 -9.93,-6.7l22.67 0zm-22.74 -7.48c0.29,-2.88 2.16,-7.13 6.76,-7.13 5.04,0 6.2,4.46 6.2,7.13l-12.96 0zm29.65 21.59l10.94 0 0 -51.17 -10.94 0 0 51.17zm50.89 -14.11c0.15,-0.79 0.36,-2.44 0.36,-4.32 0,-8.7 -4.31,-17.56 -15.69,-17.56 -12.23,0 -17.78,9.86 -17.78,18.79 0,11.01 6.84,17.92 18.79,17.92 4.75,0 9.14,-0.72 12.74,-2.23l-1.44 -7.41c-2.95,1 -5.97,1.51 -9.72,1.51 -5.11,0 -9.64,-2.16 -9.93,-6.7l22.67 0zm-22.74 -7.48c0.29,-2.88 2.16,-7.13 6.76,-7.13 5.04,0 6.2,4.46 6.2,7.13l-12.96 0zm56.43 21.59l0 -27.13 6.98 0 0 -8.07 -7.05 0 0 -1.79c0,-3.46 1.51,-6.27 5.11,-6.27 1.44,0 2.59,0.22 3.53,0.51l0.43 -8.42c-1.51,-0.37 -3.39,-0.72 -5.76,-0.72 -3.24,0 -6.98,0.93 -9.79,3.52 -3.1,2.88 -4.39,7.56 -4.39,11.81l0 1.36 -4.68 0 0 8.07 4.68 0 0 27.13 10.94 0zm41.6 -20.8c0,-8.35 -3.67,-15.26 -15.4,-15.26 -6.41,0 -11.23,1.8 -13.67,3.17l2.01 7.05c2.3,-1.44 6.12,-2.66 9.72,-2.66 5.4,0 6.4,2.66 6.4,4.6l0 0.44c-12.45,0 -20.65,4.32 -20.65,13.46 0,5.61 4.24,10.79 11.37,10.79 4.17,0 7.77,-1.51 10.08,-4.31l0.21 0 0.65 3.52 9.86 0c-0.43,-1.94 -0.58,-5.18 -0.58,-8.49l0 -12.31zm-10.58 7.99c0,0.65 -0.07,1.29 -0.21,1.87 -0.72,2.23 -3.03,4.03 -5.69,4.03 -2.45,0 -4.32,-1.36 -4.32,-4.17 0,-4.18 4.47,-5.54 10.22,-5.54l0 3.81zm19.29 2.3c0,3.96 -0.14,8.21 -0.28,10.51l9.28 0 0.43 -4.89 0.15 0c2.44,4.17 6.47,5.68 10.58,5.68 8.06,0 16.05,-6.33 16.05,-19 0.07,-10.8 -6.05,-17.78 -14.47,-17.78 -4.89,0 -8.56,1.95 -10.65,4.97l-0.15 0 0 -20.15 -10.94 0 0 40.66zm10.94 -9.64c0,-0.72 0.08,-1.37 0.22,-2.02 0.72,-3.17 3.46,-5.4 6.41,-5.4 5.11,0 7.55,4.32 7.55,9.79 0,6.34 -2.87,9.94 -7.55,9.94 -3.17,0 -5.69,-2.31 -6.41,-5.19 -0.14,-0.57 -0.22,-1.22 -0.22,-1.94l0 -5.18zm32.11 20.15l10.94 0 0 -17.85c0,-0.86 0.07,-1.73 0.21,-2.45 0.72,-3.38 3.46,-5.54 7.49,-5.54 1.22,0 2.09,0.15 2.95,0.29l0 -10.29c-0.79,-0.15 -1.3,-0.22 -2.3,-0.22 -3.46,0 -7.7,2.16 -9.5,7.34l-0.29 0 -0.43 -6.48 -9.36 0c0.22,3.03 0.29,6.41 0.29,11.59l0 23.61zm38.29 0l0 -35.2 -10.94 0 0 35.2 10.94 0zm-5.4 -50.46c-3.52,0 -5.83,2.38 -5.83,5.48 0,3.02 2.23,5.47 5.69,5.47 3.67,0 5.9,-2.45 5.9,-5.47 -0.07,-3.1 -2.23,-5.48 -5.76,-5.48zm39.3 41.46c-1.65,0.73 -3.67,1.16 -6.26,1.16 -5.33,0 -9.64,-3.46 -9.64,-9.86 -0.08,-5.76 3.67,-9.87 9.42,-9.87 2.88,0 4.83,0.51 6.12,1.08l1.73 -8.13c-2.3,-0.86 -5.47,-1.37 -8.35,-1.37 -13.1,0 -20.15,8.42 -20.15,18.72 0,11.01 7.27,17.99 18.64,17.99 4.17,0 7.84,-0.72 9.79,-1.65l-1.3 -8.07zm18.29 9l0 -35.2 -10.95 0 0 35.2 10.95 0zm-5.4 -50.46c-3.53,0 -5.83,2.38 -5.83,5.48 0,3.02 2.23,5.47 5.68,5.47 3.67,0 5.91,-2.45 5.91,-5.47 -0.08,-3.1 -2.24,-5.48 -5.76,-5.48zm25.12 50.46l0 -35.2 -10.94 0 0 35.2 10.94 0zm-5.4 -50.46c-3.53,0 -5.83,2.38 -5.83,5.48 0,3.02 2.23,5.47 5.69,5.47 3.67,0 5.9,-2.45 5.9,-5.47 -0.07,-3.1 -2.23,-5.48 -5.76,-5.48zm70.9 50.46l10.65 0 -2.59 -48.51 -14.39 0 -5.11 16.12c-1.66,5.4 -3.32,11.81 -4.61,17.42l-0.29 0c-1.08,-5.69 -2.52,-11.73 -4.1,-17.35l-4.75 -16.19 -14.62 0 -3.09 48.51 10.15 0 0.93 -18.43c0.29,-6.04 0.58,-13.53 0.8,-20.08l0.14 0c1.22,6.34 2.81,13.25 4.39,19.01l5.18 18.71 8.57 0 5.9 -18.93c1.87,-5.69 3.89,-12.6 5.47,-18.79l0.15 0c0,7.06 0.21,14.11 0.43,19.94l0.79 18.57zm40.45 -49.38c-14.25,0 -23.61,10.87 -23.61,25.41 0,13.89 8.5,24.76 22.82,24.76 14.25,0 23.82,-9.57 23.82,-25.55 0,-13.46 -8.13,-24.62 -23.03,-24.62zm-0.21 8.71c7.55,0 11.65,7.49 11.65,16.27 0,9.43 -4.24,16.48 -11.65,16.48 -7.35,0 -11.81,-6.69 -11.81,-16.26 0,-9.43 4.32,-16.49 11.81,-16.49zm30.44 40.46c2.45,0.36 6.48,0.71 11.88,0.71 9.64,0 15.55,-1.58 19.07,-4.39 3.03,-2.44 5.04,-5.9 5.04,-10.36 0,-6.19 -4.1,-10.44 -9.64,-11.88l0 -0.14c5.47,-2.09 7.99,-6.05 7.99,-10.29 0,-4.47 -2.38,-7.78 -5.76,-9.58 -3.6,-2.08 -7.7,-2.73 -14.4,-2.73 -5.54,0 -11.3,0.5 -14.18,1.01l0 47.65zm10.87 -40.38c0.87,-0.15 2.23,-0.29 4.68,-0.29 4.97,0 7.77,1.94 7.77,5.61 0,3.6 -3.02,5.98 -8.85,5.98l-3.6 0 0 -11.3zm0 19.14l3.74 0c5.47,0 9.87,1.95 9.87,6.77 0,5.11 -4.4,7.05 -9.36,7.05 -1.87,0 -3.17,0 -4.25,-0.14l0 -13.68zm32.68 -27.06l0 48.51 10.94 0 0 -48.51 -10.94 0zm20.51 48.51l30.24 0 0 -9.21 -19.29 0 0 -39.3 -10.95 0 0 48.51zm62.34 -12.45l3.74 12.45 11.88 0 -15.12 -48.51 -14.39 0 -14.76 48.51 11.3 0 3.46 -12.45 13.89 0zm-12.31 -8.21l2.88 -10.29c0.79,-2.81 1.51,-6.48 2.23,-9.36l0.14 0c0.72,2.88 1.59,6.48 2.45,9.36l3.02 10.29 -10.72 0zm47 18.36c2.74,1.51 8.21,3.02 13.75,3.02 13.32,0 19.51,-6.91 19.51,-15.04 0,-6.84 -3.96,-11.3 -12.53,-14.47 -6.33,-2.38 -9,-3.74 -9,-6.84 0,-2.44 2.31,-4.68 7.06,-4.68 4.68,0 8.2,1.37 10.08,2.31l2.44 -8.78c-2.88,-1.37 -6.83,-2.45 -12.38,-2.45 -11.37,0 -18.35,6.26 -18.35,14.54 0,7.05 5.32,11.51 13.39,14.39 5.83,2.02 8.13,3.75 8.13,6.77 0,3.17 -2.66,5.26 -7.7,5.26 -4.68,0 -9.29,-1.52 -12.17,-3.03l-2.23 9zm65.93 -10.15l3.75 12.45 11.88 0 -15.12 -48.51 -14.4 0 -14.75 48.51 11.3 0 3.45 -12.45 13.89 0zm-12.3 -8.21l2.88 -10.29c0.79,-2.81 1.51,-6.48 2.23,-9.36l0.14 0c0.72,2.88 1.58,6.48 2.45,9.36l3.02 10.29 -10.72 0z"/>
   <polygon class="fil0" points="2439.55,0.15 2834.73,73.75 2761.13,468.94 2365.95,395.34 "/>
   <g>
    <polygon class="fil1" points="2365.73,0 2415.15,0 2410.12,27.02 2392.82,27.02 2392.81,119.92 2365.73,265.29 "/>
    <polygon class="fil1" points="2834.88,0 2834.88,49.42 2807.86,44.39 2807.86,27.09 2714.96,27.08 2569.59,0 "/>
    <polygon class="fil1" points="2834.88,469.09 2785.45,469.09 2790.49,442.07 2807.79,442.07 2807.79,349.17 2834.88,203.8 "/>
    <polygon class="fil1" points="2365.73,469.07 2365.73,419.64 2392.74,424.67 2392.74,441.98 2485.64,441.98 2631.02,469.07 "/>
   </g>
   <g>
    <path class="fil3" d="M2598.93 192.54c1.71,-9.1 13.88,-6.81 12.17,2.29 -1.38,7.35 -13.56,5.07 -12.17,-2.29zm57.39 16.46c-9.05,-1.7 -6.76,-13.87 2.29,-12.17 7.84,1.48 5.56,13.65 -2.29,12.17zm-109.61 -26.9c0.24,-1.3 1.84,-3.32 2.63,-3.91 3.63,-2.73 11.41,-0.43 10.15,6.31 -1.64,8.71 -14.22,5.22 -12.78,-2.4zm59.54 -28.5c1.71,-9.11 13.88,-6.82 12.17,2.29 -1.38,7.35 -13.55,5.06 -12.17,-2.29zm57.39 16.46c-9.04,-1.7 -6.76,-13.87 2.29,-12.17 7.85,1.47 5.56,13.64 -2.29,12.17zm-109.61 -26.91c0.24,-1.3 1.84,-3.32 2.63,-3.91 3.63,-2.73 11.41,-0.43 10.15,6.31 -1.64,8.71 -14.21,5.22 -12.78,-2.4zm-66.15 -6.77l-2.63 14c6.6,1.24 14.16,4.81 19.17,8.64 5.9,4.5 8.55,7.77 12.37,13.82 8.06,12.75 6.52,26.45 3.69,41.5 3.96,-0.17 6.02,-2.02 11.53,-0.98l133.88 25.17c5.5,1.03 6.76,3.5 10.38,5.1 1.79,-9.54 2.76,-15.2 6.38,-22.49 8.86,-17.88 30.03,-28 49.67,-24.31 3.56,-18.95 6.42,-28.83 -4.25,-46.95 -4.91,-8.35 -17.54,-17.63 -27.36,-19.48l-161.88 -30.43c-15.49,-2.91 -34.63,6.08 -43.51,19.35 -2.95,4.4 -6.2,10.51 -7.44,17.06z"/>
    <path class="fil3" d="M2444.76 188.13c-2.9,15.46 1.89,26.04 13.53,35.31 -3.13,16.63 -6.17,33.3 -9.39,49.9 -1.54,7.93 -0.57,12.79 3.8,19.15 3.78,5.51 8.8,8.42 17.8,10.11l220.29 41.42c8.57,1.61 14.65,0.83 19.9,-2.71 5.23,-3.52 9.17,-7.41 10.74,-16.1 3.04,-16.84 6.32,-33.69 9.49,-50.52 5.73,-1.78 10.72,-4.08 15.13,-8.11 4.55,-4.14 7.51,-8.86 9.14,-13.77l1.51 -8.01c1.31,-24.23 -25.5,-48.23 -52.71,-28.89 -7.84,5.57 -11.82,13.32 -13.68,23.42l-9.6 51.13c-0.69,3.79 -1.82,10.37 -8.65,9.08l-167.35 -31.46c-9.87,-1.86 -4.99,-13.66 -2.27,-28.15 2.45,-13.06 8.64,-38.32 7.01,-49.34 -3.31,-22.44 -30.5,-36.22 -50.36,-22.61 -6.01,4.12 -12.49,10.38 -14.33,20.15z"/>
    <path class="fil3" d="M2516.48 235.64l-3.89 20.69 155.79 29.29 3.89 -20.69c1.42,-7.58 -4.74,-13.49 -12.93,-15.03l-125.36 -23.57c-8.17,-1.54 -16.08,1.74 -17.5,9.31z"/>
    <path class="fil3" d="M2693.98 357.22l-24.95 -4.69c-1.38,7.33 3.14,14.45 9.65,15.67 8.58,1.61 20.48,5.02 23.44,-10.71 -2.7,0.11 -4.89,0.34 -8.14,-0.27z"/>
    <path class="fil3" d="M2464.48 327.93c7.23,1.36 12.24,3.37 17.97,-0.85 2.36,-1.74 4.5,-4.76 5.23,-8.65 -9.94,-1.87 -23.88,-3.54 -32.63,-7.39 -1.6,8.52 2.4,15.57 9.43,16.89z"/>
   </g>
  </g>
 </g>
</svg>
