<?xml version="1.0" encoding="UTF-8"?><svg id="Layer_1" xmlns="http://www.w3.org/2000/svg" viewBox="0 0 1815.97 809.64"><defs><style>.cls-1{fill:blue;}.cls-2{fill:#ff5f0a;}.cls-3{fill:#ffda00;}.cls-4{fill:#0cf;}</style></defs><path class="cls-1" d="m694.04,314.1h-14.32v136.02c0,25.79,20.91,46.7,46.7,46.7h14.32v-136.02c0-25.79-20.91-46.7-46.7-46.7Z"/><path class="cls-1" d="m1092.03,330.64c-14.82-12.76-34.48-20.34-56.54-20.34-52.4,0-90.67,38.61-90.67,95.15s36.2,95.15,90.67,95.15c21.72,0,41.03-7.24,56.19-20,1.59,9.36,9.7,16.2,19.2,16.2h34.93v-182.72h-34.65c-9.6,0-17.75,7.05-19.14,16.55Zm-46.54,114.81c-23.1,0-39.65-16.55-39.65-39.99s16.55-39.99,39.65-39.99,39.65,16.55,39.65,39.99-16.55,39.99-39.65,39.99Z"/><path class="cls-1" d="m1240.92,332.71c-1.18-10.6-10.14-18.62-20.8-18.62h-37.12v182.72h61.02v-85.5c0-28.61,15.86-43.44,43.44-43.44.07,0,.14,0,.21,0,12.21.02,22.2-9.67,22.2-21.88v-31.91c-7.24-1.72-14.13-2.76-21.03-2.76-19.31,0-36.54,7.24-47.92,21.37Z"/><path class="cls-1" d="m1346.75,314.1h-14.32v136.02c0,25.79,20.91,46.7,46.7,46.7h14.32v-136.02c0-25.79-20.91-46.7-46.7-46.7Z"/><path class="cls-1" d="m1580.33,314.1c-9.6,0-17.75,7.05-19.14,16.55-14.82-12.76-34.48-20.34-56.54-20.34-52.4,0-90.67,38.61-90.67,95.15s36.2,95.15,90.67,95.15c21.72,0,41.03-7.24,56.19-20h0c1.59,9.36,9.7,16.2,19.2,16.2h34.93v-182.72h-34.65Zm-65.68,131.35c-23.1,0-39.65-16.55-39.65-39.99s16.55-39.99,39.65-39.99,39.65,16.55,39.65,39.99-16.55,39.99-39.65,39.99Z"/><path class="cls-1" d="m912.3,313.81h0s-64.82,52.41-64.82,52.41l-64.82-52.41h0c-21.19,26.21-17.12,64.63,9.09,85.82l7.2,5.82-7.2,5.82c-26.21,21.19-30.28,59.61-9.09,85.82h0s64.82-52.41,64.82-52.41l64.82,52.41h0c21.19-26.21,17.12-64.63-9.09-85.82l-7.2-5.82,7.2-5.82c26.21-21.19,30.28-59.61,9.09-85.82Z"/><path class="cls-3" d="m232.76,190.31h0c-49.6,61.35-40.07,151.29,21.28,200.88l16.86,13.63,113.6-91.84-151.74-122.67Z"/><path class="cls-2" d="m514.96,418.45l-16.86-13.63-113.6,91.84,151.74,122.67h0c49.6-61.35,40.07-151.29-21.28-200.88Z"/><path class="cls-4" d="m514.96,391.19c61.35-49.6,70.87-139.54,21.28-200.88h0s-151.74,122.67-151.74,122.67l113.6,91.84,16.86-13.63Z"/><path class="cls-1" d="m254.04,418.45c-61.35,49.6-70.87,139.54-21.28,200.88h0l151.74-122.67-113.6-91.84-16.86,13.63Z"/></svg>