<?xml version="1.0" encoding="utf-8"?>
<!-- Generator: Adobe Illustrator 27.0.0, SVG Export Plug-In . SVG Version: 6.00 Build 0)  -->
<svg version="1.1" id="Layer_1" xmlns="http://www.w3.org/2000/svg" xmlns:xlink="http://www.w3.org/1999/xlink" x="0px" y="0px"
	 viewBox="0 0 1816 541.2" style="enable-background:new 0 0 1816 541.2;" xml:space="preserve">
<style type="text/css">
	.st0{fill:#FFFFFF;}
	.st1{fill:#FFDA00;}
	.st2{fill:#FF5F0A;}
	.st3{fill:#00CCFF;}
</style>
<path class="st0" d="M638.1,156.2H620v171.6c0,32.5,26.4,58.9,58.9,58.9H697V215.1C697,182.5,670.6,156.2,638.1,156.2L638.1,156.2z"
	/>
<path class="st0" d="M1140.2,177c-18.7-16.1-43.5-25.7-71.3-25.7c-66.1,0-114.4,48.7-114.4,120s45.7,120,114.4,120
	c27.4,0,51.8-9.1,70.9-25.2c2,11.8,12.2,20.4,24.2,20.4h44.1V156.1h-43.7C1152.2,156.1,1141.9,165,1140.2,177L1140.2,177z
	 M1081.5,321.9c-29.1,0-50-20.9-50-50.4s20.9-50.4,50-50.4c29.1,0,50,20.9,50,50.4S1110.6,321.9,1081.5,321.9z"/>
<path class="st0" d="M1328,179.6c-1.5-13.4-12.8-23.5-26.2-23.5h-46.8v230.5h77V278.8c0-36.1,20-54.8,54.8-54.8c0.1,0,0.2,0,0.3,0
	c15.4,0,28-12.2,28-27.6v-40.3c-9.1-2.2-17.8-3.5-26.5-3.5C1364.1,152.7,1342.4,161.8,1328,179.6L1328,179.6z"/>
<path class="st0" d="M1461.5,156.2h-18.1v171.6c0,32.5,26.4,58.9,58.9,58.9h18.1V215.1C1520.4,182.5,1494,156.2,1461.5,156.2
	L1461.5,156.2z"/>
<path class="st0" d="M1756.2,156.2c-12.1,0-22.4,8.9-24.1,20.9c-18.7-16.1-43.5-25.7-71.3-25.7c-66.1,0-114.4,48.7-114.4,120
	s45.7,120,114.4,120c27.4,0,51.8-9.1,70.9-25.2l0,0c2,11.8,12.2,20.4,24.2,20.4h44.1V156.2L1756.2,156.2L1756.2,156.2z
	 M1673.3,321.9c-29.1,0-50-20.9-50-50.4s20.9-50.4,50-50.4c29.1,0,50,20.9,50,50.4S1702.5,321.9,1673.3,321.9z"/>
<path class="st0" d="M913.4,155.8L913.4,155.8l-81.8,66.1l-81.8-66.1l0,0c-26.7,33.1-21.6,81.5,11.5,108.3l9.1,7.3l-9.1,7.3
	c-33.1,26.7-38.2,75.2-11.5,108.3l0,0l81.8-66.1l81.8,66.1l0,0C940.2,354,935,305.5,902,278.8l-9.1-7.3l9.1-7.3
	C935,237.3,940.2,188.9,913.4,155.8z"/>
<path class="st1" d="M56.1,0L56.1,0C-6.4,77.4,5.6,190.9,83,253.4l21.3,17.2l143.3-115.9L56.1,0L56.1,0z"/>
<path class="st2" d="M412.2,287.8l-21.3-17.2L247.6,386.5L439,541.2l0,0C501.6,463.8,489.6,350.4,412.2,287.8z"/>
<path class="st3" d="M412.2,253.4C489.6,190.8,501.6,77.4,439,0l0,0L247.6,154.8l143.3,115.9L412.2,253.4L412.2,253.4z"/>
<path class="st0" d="M83,287.8c-77.4,62.6-89.4,176-26.8,253.4l0,0l191.4-154.8L104.3,270.6L83,287.8L83,287.8z"/>
</svg>
